<svg xmlns="http://www.w3.org/2000/svg"  viewBox="0 0 96 96" width="96px" height="96px" baseProfile="basic"><path fill="#0fd2ff" d="M76,77H18.329C13.74,77,11,74.383,11,70V26.218C11,19.703,15.729,19,17.763,19h54.133	C76.145,19,79,21.788,79,25.937V69c0,1.043-0.532,1.962-1.341,2.5C78.468,72.038,79,72.957,79,74C79,75.657,77.657,77,76,77z M17.122,70.855c0.027,0,0.339,0.145,1.207,0.145h55.435C73.289,70.469,73,69.769,73,69V25.937C73,25.217,73,25,71.896,25H17.763	c-0.335,0-0.53,0.035-0.63,0.061C17.085,25.2,17,25.541,17,26.218V70c0,0.525,0.083,0.789,0.12,0.856	C17.12,70.855,17.121,70.855,17.122,70.855z" opacity=".3"/><path fill="#0fd2ff" d="M76,76H18.329C12.822,76,12,72.241,12,70V26.218C12,20.808,15.61,20,17.763,20h54.133	C75.604,20,78,22.33,78,25.937V69c0,1.104-0.896,2-2,2s-2-0.896-2-2V25.937C74,24.741,73.648,24,71.896,24H17.763	C16.572,24,16,24.094,16,26.218V70c0,1.391,0.221,2,2.329,2H76c1.104,0,2,0.896,2,2S77.104,76,76,76z" opacity=".3"/><path fill="#4d4dff" d="M66,37H25c-1.657,0-3-1.343-3-3s1.343-3,3-3h41c1.657,0,3,1.343,3,3S67.657,37,66,37z" opacity=".3"/><path fill="#4d4dff" d="M66,36H25c-1.104,0-2-0.896-2-2s0.896-2,2-2h41c1.104,0,2,0.896,2,2S67.104,36,66,36z" opacity=".3"/><path fill="#4d4dff" d="M66,46H50c-1.657,0-3-1.343-3-3s1.343-3,3-3h16c1.657,0,3,1.343,3,3S67.657,46,66,46z" opacity=".3"/><path fill="#4d4dff" d="M66,45H50c-1.104,0-2-0.896-2-2s0.896-2,2-2h16c1.104,0,2,0.896,2,2S67.104,45,66,45z" opacity=".3"/><path fill="#4d4dff" d="M66,64H51c-1.657,0-3-1.343-3-3s1.343-3,3-3h15c1.657,0,3,1.343,3,3S67.657,64,66,64z" opacity=".3"/><path fill="#4d4dff" d="M66,63H51c-1.104,0-2-0.896-2-2s0.896-2,2-2h15c1.104,0,2,0.896,2,2S67.104,63,66,63z" opacity=".3"/><path fill="#4d4dff" d="M66,55H51c-1.657,0-3-1.343-3-3s1.343-3,3-3h15c1.657,0,3,1.343,3,3S67.657,55,66,55z" opacity=".3"/><path fill="#4d4dff" d="M66,54H51c-1.104,0-2-0.896-2-2s0.896-2,2-2h15c1.104,0,2,0.896,2,2S67.104,54,66,54z" opacity=".3"/><path fill="#4d4dff" d="M82,77c-1.657,0-3-1.343-3-3V49c0-1.657,1.343-3,3-3s3,1.343,3,3v25	C85,75.657,83.657,77,82,77z" opacity=".3"/><path fill="#4d4dff" d="M82,76c-1.104,0-2-0.896-2-2V49c0-1.104,0.896-2,2-2s2,0.896,2,2v25	C84,75.104,83.104,76,82,76z" opacity=".3"/><path fill="#0fd2ff" d="M26.116,64c-1.657,0-3-1.343-3-3c0-0.864,0.365-1.642,0.949-2.189	c-1.056-0.396-1.844-1.373-1.939-2.571c-0.131-1.624-0.152-8.854-0.097-9.919C22.225,42.535,24.9,40,28.695,40	c0.019,0,0.037,0,0.056,0l1.292,0.01c2.229,0.018,6.539,0.052,7.957,0.052c4.485,0,6.719,3.002,6.943,5.978	c0.103,1.355,0.087,5.578,0.063,9.429L45,57c0,2.627-1.05,4.209-1.931,5.074c-1.274,1.25-3.016,1.877-5.125,1.853	c-1.624-0.031-5.729,0.014-8.725,0.045C27.784,63.988,26.617,64,26.116,64z M28.125,46.096c0.003,0-0.083,0.14-0.104,0.536	c-0.043,0.808-0.026,7.736,0.085,9.128c0.068,0.848-0.224,1.642-0.746,2.231c0.51-0.005,1.122-0.011,1.795-0.019	c3.033-0.033,7.188-0.077,8.901-0.045c0.542,0.019,0.775-0.105,0.811-0.136C38.866,57.792,39,57.605,39,57l0.008-1.567	c0.013-2.309,0.045-7.717-0.047-8.943c-0.014-0.17-0.032-0.429-0.961-0.429c-1.427,0-5.761-0.034-8.004-0.052L28.712,46	C28.367,46.01,28.163,46.07,28.125,46.096z" opacity=".3"/><path fill="#0fd2ff" d="M26.116,63c-1.104,0-2-0.896-2-2s0.896-2,2-2c0.492,0,1.64-0.012,3.05-0.027	c3.028-0.033,7.173-0.078,8.872-0.045c0.397,0.014,1.137-0.037,1.528-0.422C39.925,58.154,40,57.493,40,57l0.008-1.561	c0.015-2.518,0.045-7.757-0.05-9.024c-0.025-0.334-0.103-1.354-1.958-1.354c-1.425,0-5.756-0.034-7.996-0.052L28.719,45	c-0.01,0-0.02,0-0.028,0c-1.32,0-1.617,0.605-1.668,1.581c-0.043,0.818-0.026,7.846,0.087,9.259	c0.089,1.101-0.732,2.065-1.833,2.154c-1.113,0.087-2.065-0.733-2.153-1.833c-0.129-1.602-0.15-8.735-0.095-9.787	c0.169-3.285,2.389-5.398,5.716-5.373l1.291,0.01c2.232,0.018,6.545,0.052,7.965,0.052c3.845,0,5.757,2.538,5.946,5.053	c0.1,1.318,0.084,5.516,0.061,9.348L44,57c0,2.28-0.887,3.63-1.631,4.36c-1.078,1.059-2.625,1.6-4.406,1.566	c-1.64-0.029-5.751,0.014-8.754,0.045C27.778,62.988,26.615,63,26.116,63z" opacity=".3"/><path fill="#0fd2ff" d="M76,75H18.329C14.793,75,13,73.318,13,70V26.218C13,22.756,14.603,21,17.763,21h54.133	C75.092,21,77,22.845,77,25.937V69c0,0.552-0.447,1-1,1s-1-0.448-1-1V25.937C75,23.988,73.955,23,71.896,23H17.763	C16.013,23,15,23.526,15,26.218V70c0,2.187,0.902,3,3.329,3H76c0.553,0,1,0.448,1,1S76.553,75,76,75z"/><path fill="#4d4dff" d="M66,35H25c-0.553,0-1-0.448-1-1s0.447-1,1-1h41c0.553,0,1,0.448,1,1S66.553,35,66,35z"/><path fill="#4d4dff" d="M66,44H50c-0.553,0-1-0.448-1-1s0.447-1,1-1h16c0.553,0,1,0.448,1,1S66.553,44,66,44z"/><path fill="#4d4dff" d="M66,62H51c-0.553,0-1-0.448-1-1s0.447-1,1-1h15c0.553,0,1,0.448,1,1S66.553,62,66,62z"/><path fill="#4d4dff" d="M66,53H51c-0.553,0-1-0.448-1-1s0.447-1,1-1h15c0.553,0,1,0.448,1,1S66.553,53,66,53z"/><path fill="#4d4dff" d="M82,75c-0.553,0-1-0.448-1-1V49c0-0.552,0.447-1,1-1s1,0.448,1,1v25C83,74.552,82.553,75,82,75z"/><path fill="#0fd2ff" d="M26.116,62c-0.553,0-1-0.448-1-1s0.447-1,1-1c0.494,0,1.645-0.012,3.061-0.027	c3.021-0.033,7.16-0.074,8.842-0.045c0.666,0.014,1.628-0.099,2.249-0.708C40.754,58.742,41,57.996,41,57l0.008-1.555	c0.016-2.725,0.046-7.798-0.053-9.104c-0.109-1.448-1.187-2.279-2.955-2.279c-1.424,0-5.75-0.034-7.988-0.052L28.725,44	c-1.74-0.036-2.614,0.84-2.7,2.529c-0.049,0.912-0.028,7.938,0.089,9.391c0.044,0.551-0.366,1.033-0.917,1.077	c-0.561,0.049-1.033-0.366-1.077-0.917c-0.124-1.555-0.143-8.694-0.093-9.655C24.168,43.693,25.955,42,28.694,42	c0.015,0,0.029,0,0.044,0l1.289,0.01c2.234,0.018,6.552,0.052,7.973,0.052c2.817,0,4.76,1.621,4.949,4.128	c0.097,1.281,0.08,5.455,0.058,9.267L43,57c0,1.552-0.448,2.779-1.332,3.646c-0.882,0.866-2.159,1.301-3.687,1.281	c-1.656-0.032-5.775,0.013-8.783,0.045C27.772,61.988,26.613,62,26.116,62z"/></svg>